<?xml version="1.0" standalone="no"?>
<!DOCTYPE svg PUBLIC "-//W3C//DTD SVG 20010904//EN"
 "http://www.w3.org/TR/2001/REC-SVG-20010904/DTD/svg10.dtd">
<svg version="1.0" xmlns="http://www.w3.org/2000/svg"
 width="64.000000pt" height="64.000000pt" viewBox="0 0 64.000000 64.000000"
 preserveAspectRatio="xMidYMid meet">

<g transform="translate(0.000000,64.000000) scale(0.100000,-0.100000)"
fill="#00acc1" stroke="none">
<path d="M194 598 c-4 -7 -14 -23 -22 -35 -9 -15 -10 -23 -3 -23 6 0 11 6 11
13 0 8 9 22 20 32 11 10 20 13 20 7 0 -6 -4 -14 -10 -17 -13 -8 -13 -42 1 -50
5 -4 19 1 30 11 23 21 25 12 3 -21 -21 -32 -15 -63 17 -82 33 -20 72 -11 87
19 12 23 12 23 6 -2 -6 -22 -2 -20 29 15 22 25 32 44 26 49 -5 6 -9 17 -9 25
1 13 2 13 11 -1 23 -40 78 -3 66 44 -5 16 -3 17 9 7 10 -8 13 -21 9 -37 -4
-16 -1 -29 7 -34 9 -7 8 -8 -5 -4 -23 7 -67 -21 -67 -43 0 -12 -2 -13 -8 -3
-6 9 -15 6 -32 -13 -28 -30 -22 -38 47 -57 23 -7 40 -15 37 -20 -3 -4 2 -5 10
-2 9 3 16 1 16 -5 0 -6 6 -11 14 -11 18 0 26 -22 26 -69 0 -24 8 -49 21 -65
21 -27 34 -116 17 -116 -4 0 -8 10 -8 23 0 12 -7 31 -15 41 -8 11 -15 30 -15
43 0 13 -4 23 -10 23 -13 0 -13 -26 1 -51 5 -11 9 -31 7 -45 l-3 -25 -22 21
c-29 26 -30 73 -3 100 21 21 27 74 10 85 -6 4 -10 -11 -10 -37 0 -30 -3 -39
-10 -28 -8 12 -10 12 -15 -2 -4 -10 -13 -14 -23 -11 -14 5 -15 3 -4 -8 17 -18
15 -54 -4 -73 -8 -9 -13 -20 -10 -24 3 -5 -6 -14 -21 -21 -23 -10 -29 -9 -47
8 l-20 21 25 27 24 28 -27 -24 c-16 -14 -28 -30 -28 -37 0 -19 -20 -28 -33
-15 -6 6 -28 11 -48 11 -44 0 -90 15 -105 35 -6 8 -8 32 -5 57 6 41 8 43 39
41 29 -1 31 1 20 15 -11 13 -10 15 4 9 23 -8 96 18 124 44 21 20 23 20 32 2 5
-10 12 -31 16 -47 4 -15 9 -26 12 -23 6 6 -12 76 -25 96 -7 12 -13 12 -24 3
-7 -7 -17 -9 -21 -5 -4 4 -4 0 -1 -8 4 -10 -3 -19 -19 -27 -22 -10 -24 -9 -19
6 4 11 -4 7 -22 -10 -15 -16 -33 -28 -38 -28 -7 0 -7 4 1 12 20 20 13 32 -8
13 -23 -21 -39 -13 -21 9 7 8 10 20 6 26 -8 14 -32 13 -41 -2 -5 -8 -2 -9 9
-5 29 11 19 -11 -18 -39 -24 -18 -32 -30 -26 -38 6 -8 6 -33 0 -71 -6 -33 -13
-82 -17 -110 -7 -47 -8 -48 -20 -28 -14 25 -7 66 14 84 8 6 14 19 14 28 -1 13
-3 13 -15 -3 -11 -14 -15 -16 -15 -5 -1 9 -7 6 -20 -10 -24 -28 -27 -15 -4 17
8 12 20 19 26 16 6 -4 8 -2 4 4 -3 6 -2 13 4 17 5 3 15 15 20 26 9 16 7 21
-16 29 -24 9 -26 14 -21 46 5 30 3 35 -9 30 -23 -9 16 56 42 69 60 32 59 30
36 55 l-21 23 5 -27 c5 -30 -11 -35 -26 -6 -8 15 -6 21 9 30 16 8 26 3 60 -31
29 -30 38 -35 34 -20 -3 12 -12 21 -20 21 -13 0 -13 3 -3 15 10 13 10 19 -5
35 -10 11 -23 20 -29 20 -6 0 -3 -7 7 -14 27 -21 20 -28 -9 -9 -25 16 -27 16
-39 0 -6 -9 -15 -14 -18 -10 -4 3 -7 -5 -7 -18 0 -14 5 -30 10 -35 8 -8 2 -21
-20 -44 -16 -17 -30 -41 -30 -52 0 -21 28 -80 42 -89 6 -4 -6 -28 -26 -53 -20
-26 -36 -51 -36 -55 0 -4 9 -17 20 -29 11 -12 20 -28 20 -37 0 -21 37 -56 53
-49 7 2 22 -4 32 -16 10 -11 28 -20 39 -19 12 0 15 3 8 6 -7 2 -17 13 -22 24
-9 16 -5 21 26 34 49 20 57 19 51 -7 -5 -21 -5 -21 7 -5 20 26 74 23 85 -6 8
-20 5 -23 -48 -34 l-56 -12 75 5 c41 3 86 7 100 9 14 2 41 4 60 6 34 2 34 2 5
6 -32 5 -116 73 -90 73 9 0 27 11 40 24 23 23 24 23 53 6 16 -10 34 -24 38
-32 6 -9 11 -4 16 17 5 19 5 12 2 -20 l-5 -50 26 28 c14 15 25 39 25 53 0 13
5 24 10 24 19 0 10 32 -21 71 -40 51 -55 135 -28 152 26 16 24 30 -3 22 -19
-5 -18 -3 5 10 15 9 27 21 27 27 0 6 -8 4 -18 -5 -10 -10 -21 -14 -24 -11 -4
3 -9 -4 -13 -15 -8 -27 -31 -27 -45 0 -12 22 -4 42 9 21 5 -9 12 -8 27 4 19
15 19 15 -3 11 -17 -4 -20 -1 -16 12 5 13 3 14 -8 4 -18 -18 -58 -18 -41 -1
15 15 94 13 122 -2 12 -6 20 -7 20 -1 0 5 -6 12 -12 14 -10 4 -10 6 -1 6 21 2
25 -19 9 -44 -9 -14 -12 -25 -7 -25 16 0 33 29 29 52 -4 29 -69 44 -125 29
-20 -6 -39 -8 -42 -5 -8 8 22 24 47 24 21 0 22 3 16 43 -8 48 -20 67 -43 67
-11 0 -16 -9 -16 -32 0 -37 -18 -51 -23 -18 -2 11 -7 20 -11 20 -18 0 -33 -31
-27 -54 6 -24 5 -24 -67 -28 -39 -2 -74 -2 -77 0 -2 1 1 12 8 22 24 38 3 58
-24 23 -17 -24 -32 -8 -16 17 7 11 12 27 12 35 0 18 -26 20 -36 3z m86 -123
c0 -1 -9 -5 -20 -8 -12 -3 -20 0 -20 8 0 8 8 11 20 8 11 -3 20 -7 20 -8z m43
8 c-7 -2 -19 -2 -25 0 -7 3 -2 5 12 5 14 0 19 -2 13 -5z m57 -3 c0 -13 -11
-13 -30 0 -12 8 -11 10 8 10 12 0 22 -4 22 -10z m49 -39 c10 -7 7 -9 -12 -8
-14 1 -23 5 -20 10 6 9 15 9 32 -2z m-234 -141 c-3 -5 -10 -10 -16 -10 -5 0
-9 5 -9 10 0 6 7 10 16 10 8 0 12 -4 9 -10z m410 -120 c3 -5 1 -10 -4 -10 -6
0 -11 5 -11 10 0 6 2 10 4 10 3 0 8 -4 11 -10z m-295 -60 c10 -6 12 -12 5 -19
-7 -7 -14 -4 -23 9 -13 21 -6 25 18 10z m60 -5 c0 -8 -4 -15 -9 -15 -13 0 -22
16 -14 24 11 11 23 6 23 -9z m15 -45 c4 -6 10 -8 15 -5 4 3 13 -2 20 -10 8 -9
8 -15 2 -15 -6 0 -13 6 -15 13 -3 7 -6 6 -6 -5 -2 -30 -19 -29 -30 2 -9 28 0
42 14 20z"/>
<path d="M294 278 c0 -12 4 -14 13 -7 13 12 54 2 65 -15 4 -6 10 -7 14 -3 13
13 -17 35 -54 39 -30 2 -38 0 -38 -14z"/>
<path d="M430 290 c0 -5 -10 -18 -22 -30 -12 -11 -18 -23 -13 -27 4 -5 10 -3
12 4 2 7 11 9 19 6 10 -4 14 3 14 26 0 17 -2 31 -5 31 -3 0 -5 -4 -5 -10z"/>
<path d="M183 254 c-20 -21 -15 -34 12 -34 27 0 34 21 13 38 -9 7 -17 6 -25
-4z"/>
<path d="M311 244 c-9 -11 -10 -19 -3 -26 16 -16 42 -2 42 22 0 24 -19 26 -39
4z"/>
<path d="M410 209 c0 -11 5 -17 10 -14 6 3 10 13 10 21 0 8 -4 14 -10 14 -5 0
-10 -9 -10 -21z"/>
<path d="M460 100 c-14 -11 -20 -20 -14 -20 6 0 19 9 29 20 23 25 17 25 -15 0z"/>
</g>
</svg>
